<svg xmlns="http://www.w3.org/2000/svg" width="1024" height="1024" viewBox="0 0 1024 1024"><defs><path id="rim-top" d="M 512 92 a 420 420 0 0 1 0 840 a 420 420 0 0 1 0 -840"/><path id="rim-bottom" d="M 512 932 a 420 420 0 0 0 0 -840 a 420 420 0 0 0 0 840"/></defs><rect width="1024" height="1024" fill="#f3ede2"/><defs><radialGradient id="paper-grain" cx="50%" cy="50%" r="65%"><stop offset="60%" stop-color="#f3ede2" stop-opacity="0"/><stop offset="100%" stop-color="#14110d" stop-opacity=".06"/></radialGradient></defs><rect width="1024" height="1024" fill="url(#paper-grain)"/><circle cx="512" cy="512" r="460" fill="none" stroke="#e85d2f" stroke-dasharray="220 14 180 8 280 12 160 10 240 16" stroke-width="10"/><circle cx="512" cy="512" r="430" fill="none" stroke="#e85d2f" stroke-width="6"/><circle cx="512" cy="512" r="424" fill="#ece5d6"/><circle cx="512" cy="512" r="276" fill="none" stroke="#e85d2f" stroke-dasharray="6 6" stroke-width="3" opacity=".65"/><text fill="#e85d2f" font-family="JetBrainsMono-Bold, 'JetBrains Mono', ui-monospace, monospace" font-size="62" font-weight="700" letter-spacing="22"><textPath href="#rim-top" startOffset="50%" text-anchor="middle">RUNSTAMP</textPath></text><text fill="#e85d2f" font-family="JetBrainsMono-Bold, 'JetBrains Mono', ui-monospace, monospace" font-size="46" font-weight="700" letter-spacing="14"><textPath href="#rim-bottom" startOffset="50%" text-anchor="middle">EST · 2026</textPath></text><line x1="180" x2="290" y1="512" y2="512" stroke="#e85d2f" stroke-linecap="round" stroke-width="8" opacity=".85"/><line x1="734" x2="844" y1="512" y2="512" stroke="#e85d2f" stroke-linecap="round" stroke-width="8" opacity=".85"/><rect width="392" height="260" x="316" y="382" fill="#14110d" rx="18"/><text x="512" y="592" fill="#f3ede2" font-family="JetBrainsMono-Bold, 'JetBrains Mono', ui-monospace, monospace" font-size="220" font-weight="800" letter-spacing="-6" text-anchor="middle">RS</text><circle cx="316" cy="660" r="4" fill="#14110d" opacity=".35"/><circle cx="338" cy="676" r="2.4" fill="#14110d" opacity=".25"/><circle cx="700" cy="664" r="3" fill="#14110d" opacity=".3"/></svg>