<svg xmlns="http://www.w3.org/2000/svg" viewBox="0 0 200 200">
  <!-- Mythic-tier shadow plate: Distant tree line or clouds -->
  <g id="shadow" fill="none" stroke="currentColor" stroke-width="2.4" stroke-linecap="round" stroke-linejoin="round">
    <path d="M 10 116 Q 20 90 40 100 Q 50 110 50 116" />
    <path d="M 150 116 Q 160 90 180 100 Q 190 110 190 116" />
    <!-- Hatching in the background -->
    <line x1="20" y1="110" x2="30" y2="110"/>
    <line x1="160" y1="110" x2="170" y2="110"/>
  </g>

  <!-- Primary ink plate: Vidhana Soudha -->
  <g id="ink" fill="none" stroke="currentColor" stroke-width="2.4" stroke-linecap="round" stroke-linejoin="round">
    <!-- Ground line -->
    <line x1="6" y1="186" x2="194" y2="186"/>
    <line x1="20" y1="172" x2="180" y2="172"/>
    <line x1="14" y1="180" x2="186" y2="180"/>

    <!-- Main façade outline -->
    <line x1="14" y1="172" x2="14" y2="116"/>
    <line x1="186" y1="172" x2="186" y2="116"/>
    <line x1="14" y1="116" x2="186" y2="116"/>
    <line x1="14" y1="112" x2="186" y2="112"/>

    <!-- Side wings -->
    <line x1="34" y1="172" x2="34" y2="116"/>
    <line x1="166" y1="172" x2="166" y2="116"/>
    <rect x="20" y="140" width="8" height="20"/>
    <rect x="40" y="140" width="8" height="20"/>
    <rect x="152" y="140" width="8" height="20"/>
    <rect x="172" y="140" width="8" height="20"/>

    <!-- Central portico -->
    <line x1="62" y1="172" x2="62" y2="116"/>
    <line x1="62" y1="116" x2="138" y2="116"/>
    <line x1="138" y1="172" x2="138" y2="116"/>
    
    <!-- Columns with hatching (woodcut style) -->
    <line x1="72" y1="170" x2="72" y2="120"/>
    <line x1="84" y1="170" x2="84" y2="120"/>
    <line x1="96" y1="170" x2="96" y2="120"/>
    <line x1="104" y1="170" x2="104" y2="120"/>
    <line x1="116" y1="170" x2="116" y2="120"/>
    <line x1="128" y1="170" x2="128" y2="120"/>
    <line x1="66" y1="120" x2="134" y2="120"/>
    
    <!-- Step hatching -->
    <line x1="62" y1="164" x2="138" y2="164"/>
    <line x1="62" y1="158" x2="138" y2="158"/>

    <!-- Upper tier -->
    <rect x="72" y="80" width="56" height="32"/>
    <line x1="72" y1="86" x2="128" y2="86"/>
    <line x1="80" y1="92" x2="80" y2="106"/>
    <line x1="100" y1="92" x2="100" y2="106"/>
    <line x1="120" y1="92" x2="120" y2="106"/>

    <!-- Central dome -->
    <path d="M 70 80 Q 100 30 130 80"/>
    <path d="M 84 78 Q 84 60 92 50"/>
    <path d="M 116 78 Q 116 60 108 50"/>
    <line x1="100" y1="78" x2="100" y2="40"/>
    
    <!-- Woodcut shading on dome (right side) -->
    <path d="M 112 75 Q 112 60 105 50" stroke-width="1"/>
    <path d="M 122 75 Q 120 60 115 55" stroke-width="1"/>
    
    <!-- Small domes -->
    <path d="M 30 116 Q 42 100 54 116"/>
    <line x1="42" y1="100" x2="42" y2="92"/>
    <path d="M 146 116 Q 158 100 170 116"/>
    <line x1="158" y1="100" x2="158" y2="92"/>
  </g>

  <!-- Accent plate: highlights on the columns and dome ribs -->
  <g id="accent" fill="none" stroke="currentColor" stroke-width="2.4" stroke-linecap="round" stroke-linejoin="round">
    <line x1="74" y1="170" x2="74" y2="120" stroke-width="1"/>
    <line x1="86" y1="170" x2="86" y2="120" stroke-width="1"/>
    <line x1="106" y1="170" x2="106" y2="120" stroke-width="1"/>
    <line x1="118" y1="170" x2="118" y2="120" stroke-width="1"/>
  </g>

  <!-- Foil plate: Finials -->
  <g id="foil" fill="none" stroke="currentColor" stroke-width="2.4" stroke-linecap="round" stroke-linejoin="round">
    <line x1="92" y1="40" x2="108" y2="40"/>
    <line x1="100" y1="38" x2="100" y2="22"/>
    <circle cx="100" cy="20" r="2" fill="currentColor" stroke="none"/>
    <line x1="100" y1="18" x2="100" y2="10"/>
  </g>
</svg>