<svg xmlns="http://www.w3.org/2000/svg" viewBox="0 0 200 200"><g id="shadow" fill="none" stroke="currentColor" stroke-linecap="round" stroke-linejoin="round" stroke-width="2.4"><path stroke-width="1.2" d="M 10 120 L 50 120 M 15 114 L 45 114 M 20 108 L 40 108"/><path stroke-width="1.2" d="M 150 120 L 190 120 M 155 114 L 185 114 M 160 108 L 180 108"/><path stroke-width="1.2" d="M 15 125 L 15 135 M 20 123 L 20 135 M 25 126 L 25 135 M 30 124 L 30 135 M 35 127 L 35 135 M 40 125 L 40 135 M 45 128 L 45 135"/><path stroke-width="1.2" d="M 155 125 L 155 135 M 160 123 L 160 135 M 165 126 L 165 135 M 170 124 L 170 135 M 175 127 L 175 135 M 180 125 L 180 135 M 185 128 L 185 135"/></g><g id="ink" fill="none" stroke="currentColor" stroke-linecap="round" stroke-linejoin="round" stroke-width="2.4"><line x1="4" x2="196" y1="184" y2="184"/><line x1="10" x2="190" y1="178" y2="178"/><line x1="16" x2="184" y1="172" y2="172"/><path stroke-width="1.2" d="M 10 184 L 16 178 M 20 184 L 26 178 M 30 184 L 36 178 M 40 184 L 46 178 M 50 184 L 56 178 M 60 184 L 66 178 M 70 184 L 76 178 M 80 184 L 86 178 M 90 184 L 96 178 M 100 184 L 106 178 M 110 184 L 116 178 M 120 184 L 126 178 M 130 184 L 136 178 M 140 184 L 146 178 M 150 184 L 156 178 M 160 184 L 166 178 M 170 184 L 176 178 M 180 184 L 186 178 M 190 184 L 196 178"/><rect width="88" height="62" x="56" y="110"/><line x1="62" x2="62" y1="110" y2="172"/><line x1="68" x2="68" y1="110" y2="172"/><line x1="74" x2="74" y1="110" y2="172"/><line x1="80" x2="80" y1="110" y2="172"/><line x1="86" x2="86" y1="110" y2="172"/><line x1="92" x2="92" y1="110" y2="172"/><line x1="98" x2="98" y1="110" y2="172"/><line x1="104" x2="104" y1="110" y2="172"/><line x1="110" x2="110" y1="110" y2="172"/><line x1="116" x2="116" y1="110" y2="172"/><line x1="122" x2="122" y1="110" y2="172"/><line x1="128" x2="128" y1="110" y2="172"/><line x1="134" x2="134" y1="110" y2="172"/><rect width="96" height="8" x="52" y="102"/><path d="M 52 102 L 100 85 L 148 102 Z"/><path stroke-width="1" d="M 60 102 L 100 88 M 70 102 L 100 92 M 80 102 L 100 95 M 90 102 L 100 98"/><path stroke-width="1" d="M 140 102 L 100 88 M 130 102 L 100 92 M 120 102 L 100 95 M 110 102 L 100 98"/><rect width="48" height="20" x="76" y="65"/><line x1="82" x2="82" y1="65" y2="85"/><line x1="88" x2="88" y1="65" y2="85"/><line x1="94" x2="94" y1="65" y2="85"/><line x1="100" x2="100" y1="65" y2="85"/><line x1="106" x2="106" y1="65" y2="85"/><line x1="112" x2="112" y1="65" y2="85"/><line x1="118" x2="118" y1="65" y2="85"/><path d="M 72 65 Q 100 25 128 65"/><path stroke-width="1.5" d="M 80 65 Q 90 35 100 25"/><path stroke-width="1.5" d="M 90 65 Q 95 30 100 25"/><path stroke-width="1.5" d="M 100 65 L 100 25"/><path stroke-width="1.5" d="M 110 65 Q 105 30 100 25"/><path stroke-width="1.5" d="M 120 65 Q 110 35 100 25"/><rect width="32" height="46" x="24" y="126"/><rect width="32" height="46" x="144" y="126"/><rect width="8" height="16" x="30" y="136"/><rect width="8" height="16" x="42" y="136"/><rect width="8" height="16" x="150" y="136"/><rect width="8" height="16" x="162" y="136"/><path d="M 22 126 Q 40 106 58 126"/><path d="M 142 126 Q 160 106 178 126"/><path stroke-width="1.2" d="M 30 126 Q 40 112 50 126"/><path stroke-width="1.2" d="M 150 126 Q 160 112 170 126"/></g><g id="accent" fill="none" stroke="currentColor" stroke-linecap="round" stroke-linejoin="round" stroke-width="2.4"><path stroke-width="2" d="M 65 110 L 65 172 M 77 110 L 77 172 M 89 110 L 89 172 M 101 110 L 101 172 M 113 110 L 113 172 M 125 110 L 125 172" opacity=".3"/></g><g id="foil" fill="none" stroke="currentColor" stroke-linecap="round" stroke-linejoin="round" stroke-width="2.4"><line x1="100" x2="100" y1="25" y2="8"/><line x1="94" x2="106" y1="18" y2="18"/><line x1="96" x2="104" y1="12" y2="12"/><circle cx="100" cy="8" r="2" fill="currentColor" stroke="none"/></g></svg>