<svg xmlns="http://www.w3.org/2000/svg" viewBox="0 0 200 200">
  <g id="ink" fill="none" stroke="currentColor" stroke-width="2.4" stroke-linecap="round" stroke-linejoin="round">
    <!-- Ground line -->
    <line x1="14" y1="184" x2="186" y2="184"/>

    <!-- Plinth -->
    <rect x="20" y="170" width="160" height="14"/>

    <!-- Main square base (the four-archway block) -->
    <line x1="42" y1="170" x2="42" y2="124"/>
    <line x1="158" y1="170" x2="158" y2="124"/>

    <!-- Central front arch -->
    <path d="M 78 170 L 78 138 A 22 22 0 0 1 122 138 L 122 170"/>

    <!-- Cornice (top of base block) -->
    <line x1="42" y1="124" x2="158" y2="124"/>
    <!-- Balcony band: thin double line -->
    <line x1="42" y1="120" x2="158" y2="120"/>

    <!-- Second-tier decorative arches above base (smaller, between minarets) -->
    <path d="M 56 120 L 56 108 A 6 6 0 0 1 68 108 L 68 120"/>
    <path d="M 80 120 L 80 100 A 10 10 0 0 1 100 100 L 100 120"/>
    <path d="M 100 120 L 100 100 A 10 10 0 0 1 120 100 L 120 120"/>
    <path d="M 132 120 L 132 108 A 6 6 0 0 1 144 108 L 144 120"/>

    <!-- Upper cornice -->
    <line x1="42" y1="92" x2="158" y2="92"/>

    <!-- Central dome (sits between the four minarets, lower than minaret tops) -->
    <path d="M 84 92 Q 100 60 116 92"/>
    <!-- Dome finial -->
    <line x1="100" y1="58" x2="100" y2="50"/>
    <circle cx="100" cy="48" r="1.6" fill="currentColor" stroke="none"/>

    <!-- Four corner minarets -->
    <!-- Front-left minaret -->
    <line x1="30" y1="170" x2="30" y2="44"/>
    <line x1="42" y1="170" x2="42" y2="44"/>
    <!-- minaret balconies -->
    <line x1="26" y1="142" x2="46" y2="142"/>
    <line x1="26" y1="108" x2="46" y2="108"/>
    <line x1="26" y1="74" x2="46" y2="74"/>
    <line x1="26" y1="44" x2="46" y2="44"/>
    <!-- minaret onion dome -->
    <path d="M 28 44 Q 36 22 44 44"/>
    <!-- finial -->
    <line x1="36" y1="22" x2="36" y2="14"/>
    <circle cx="36" cy="12" r="1.6" fill="currentColor" stroke="none"/>

    <!-- Front-right minaret (mirror) -->
    <line x1="158" y1="170" x2="158" y2="44"/>
    <line x1="170" y1="170" x2="170" y2="44"/>
    <line x1="154" y1="142" x2="174" y2="142"/>
    <line x1="154" y1="108" x2="174" y2="108"/>
    <line x1="154" y1="74" x2="174" y2="74"/>
    <line x1="154" y1="44" x2="174" y2="44"/>
    <path d="M 156 44 Q 164 22 172 44"/>
    <line x1="164" y1="22" x2="164" y2="14"/>
    <circle cx="164" cy="12" r="1.6" fill="currentColor" stroke="none"/>
  </g>
</svg>
