<svg xmlns="http://www.w3.org/2000/svg" viewBox="0 0 200 200">
  <!-- Shadow plate: Distant minaret shadows or street base -->
  <g id="shadow" fill="none" stroke="currentColor" stroke-width="2.4" stroke-linecap="round" stroke-linejoin="round">
    <line x1="14" y1="188" x2="186" y2="188"/>
    <path d="M 46 150 L 52 140 L 60 140" stroke-width="1"/>
    <path d="M 140 150 L 148 140 L 154 140" stroke-width="1"/>
  </g>

  <g id="ink" fill="none" stroke="currentColor" stroke-width="2.4" stroke-linecap="round" stroke-linejoin="round">
    <line x1="14" y1="184" x2="186" y2="184"/>
    <rect x="20" y="170" width="160" height="14"/>
    
    <line x1="42" y1="170" x2="42" y2="124"/>
    <line x1="158" y1="170" x2="158" y2="124"/>

    <path d="M 78 170 L 78 138 A 22 22 0 0 1 122 138 L 122 170"/>
    <!-- Woodcut shading in arch -->
    <path d="M 84 170 L 84 140 A 16 16 0 0 1 116 140 L 116 170" stroke-width="1.2"/>
    <line x1="90" y1="170" x2="90" y2="145" stroke-width="1.2"/>
    <line x1="110" y1="170" x2="110" y2="145" stroke-width="1.2"/>

    <line x1="42" y1="124" x2="158" y2="124"/>
    <line x1="42" y1="120" x2="158" y2="120"/>

    <path d="M 56 120 L 56 108 A 6 6 0 0 1 68 108 L 68 120"/>
    <path d="M 80 120 L 80 100 A 10 10 0 0 1 100 100 L 100 120"/>
    <path d="M 100 120 L 100 100 A 10 10 0 0 1 120 100 L 120 120"/>
    <path d="M 132 120 L 132 108 A 6 6 0 0 1 144 108 L 144 120"/>

    <line x1="42" y1="92" x2="158" y2="92"/>

    <path d="M 84 92 Q 100 60 116 92"/>
    <!-- Dome hatching -->
    <path d="M 92 92 Q 100 70 108 92" stroke-width="1.2"/>

    <line x1="30" y1="170" x2="30" y2="44"/>
    <line x1="42" y1="170" x2="42" y2="44"/>
    <line x1="26" y1="142" x2="46" y2="142"/>
    <line x1="26" y1="108" x2="46" y2="108"/>
    <line x1="26" y1="74" x2="46" y2="74"/>
    <line x1="26" y1="44" x2="46" y2="44"/>
    
    <!-- Minaret shading -->
    <line x1="33" y1="168" x2="33" y2="46" stroke-width="1"/>
    
    <path d="M 28 44 Q 36 22 44 44"/>

    <line x1="158" y1="170" x2="158" y2="44"/>
    <line x1="170" y1="170" x2="170" y2="44"/>
    <line x1="154" y1="142" x2="174" y2="142"/>
    <line x1="154" y1="108" x2="174" y2="108"/>
    <line x1="154" y1="74" x2="174" y2="74"/>
    <line x1="154" y1="44" x2="174" y2="44"/>
    
    <line x1="161" y1="168" x2="161" y2="46" stroke-width="1"/>
    
    <path d="M 156 44 Q 164 22 172 44"/>
  </g>

  <g id="accent" fill="none" stroke="currentColor" stroke-width="2.4" stroke-linecap="round" stroke-linejoin="round">
    <!-- Balcony details -->
    <line x1="42" y1="102" x2="158" y2="102" stroke-width="1.2" stroke-dasharray="2 4"/>
    <line x1="42" y1="112" x2="158" y2="112" stroke-width="1.2" stroke-dasharray="2 4"/>
  </g>

  <g id="foil" fill="none" stroke="currentColor" stroke-width="2.4" stroke-linecap="round" stroke-linejoin="round">
    <!-- Finials -->
    <line x1="100" y1="58" x2="100" y2="50"/>
    <circle cx="100" cy="48" r="1.6" fill="currentColor" stroke="none"/>
    
    <line x1="36" y1="22" x2="36" y2="14"/>
    <circle cx="36" cy="12" r="1.6" fill="currentColor" stroke="none"/>
    
    <line x1="164" y1="22" x2="164" y2="14"/>
    <circle cx="164" cy="12" r="1.6" fill="currentColor" stroke="none"/>
  </g>
</svg>