<svg xmlns="http://www.w3.org/2000/svg" viewBox="0 0 200 200">

  <!-- Mythic-tier shadow plate: distant Himalayan ridge, offset behind ink -->
  <g id="shadow" fill="none" stroke="currentColor" stroke-width="2.4" stroke-linecap="round" stroke-linejoin="round">
    <!-- Two background peaks -->
    <path d="M 8 132 L 60 38 L 96 90 L 138 30 L 192 118"/>
    <!-- Mid-ridge contour suggesting a second ridge behind -->
    <path d="M 30 110 L 68 80 L 84 96 L 106 76 L 132 100 L 168 76 L 186 100"/>
    <!-- Ground contour at base -->
    <line x1="6" y1="172" x2="194" y2="172"/>
  </g>

  <!-- Primary ink plate: stupa silhouette -->
  <g id="ink" fill="none" stroke="currentColor" stroke-width="2.4" stroke-linecap="round" stroke-linejoin="round">
    <!-- Lowest plinth (wide three-tier base) -->
    <rect x="60" y="158" width="80" height="14"/>
    <rect x="68" y="146" width="64" height="12"/>
    <rect x="76" y="134" width="48" height="12"/>

    <!-- Anda (hemispherical dome) -->
    <path d="M 78 134 Q 100 78 122 134"/>

    <!-- Harmika (square block atop the dome) -->
    <rect x="92" y="76" width="16" height="12"/>

    <!-- Sokushin (conical spire) — three-tier stepped triangle -->
    <path d="M 92 76 L 100 50 L 108 76"/>
    <line x1="94" y1="68" x2="106" y2="68"/>
    <line x1="96" y1="60" x2="104" y2="60"/>

    <!-- Chattra (umbrella discs) -->
    <line x1="92" y1="50" x2="108" y2="50"/>
    <line x1="94" y1="44" x2="106" y2="44"/>
    <line x1="96" y1="38" x2="104" y2="38"/>

    <!-- Pinnacle -->
    <line x1="100" y1="38" x2="100" y2="30"/>
    <circle cx="100" cy="28" r="1.8" fill="currentColor" stroke="none"/>
  </g>

  <!-- Mythic foil layer: prayer-flag string strung across the peak -->
  <g id="foil" fill="none" stroke="currentColor" stroke-width="2" stroke-linecap="round" stroke-linejoin="round">
    <!-- The string itself, sagging slightly between two peaks -->
    <path d="M 18 26 Q 80 48 138 30 Q 168 22 188 38"/>
    <!-- Five small flags hanging from the string -->
    <path d="M 36 32 L 36 42 L 44 38 Z"/>
    <path d="M 64 40 L 64 50 L 72 46 Z"/>
    <path d="M 96 42 L 96 52 L 104 48 Z"/>
    <path d="M 128 36 L 128 46 L 136 42 Z"/>
    <path d="M 160 30 L 160 40 L 168 36 Z"/>
  </g>
</svg>
