<svg xmlns="http://www.w3.org/2000/svg" viewBox="0 0 200 200"><g id="shadow" fill="none" stroke="currentColor" stroke-linecap="round" stroke-linejoin="round" stroke-width="2.4"><path d="M 4 120 L 30 70 L 45 85 L 70 30 L 95 65 L 110 50 L 140 90 L 165 40 L 196 110"/><path stroke-width="1.5" d="M 20 120 L 50 80 L 65 95 L 90 50 L 115 80 L 140 60 L 170 100 M 180 120 L 190 100"/><path stroke-width="1.2" d="M 28 75 L 35 90 M 32 75 L 40 90 M 68 35 L 75 55 M 72 35 L 80 55 M 76 35 L 85 55 M 108 55 L 115 70 M 112 55 L 120 70 M 162 45 L 170 65 M 166 45 L 175 65"/></g><g id="ink" fill="none" stroke="currentColor" stroke-linecap="round" stroke-linejoin="round" stroke-width="2.4"><line x1="20" x2="180" y1="180" y2="180"/><line x1="30" x2="170" y1="172" y2="172"/><line x1="40" x2="160" y1="164" y2="164"/><rect width="100" height="14" x="50" y="150"/><path stroke-width="1.2" d="M 55 164 L 55 150 M 60 164 L 60 150 M 140 164 L 140 150 M 145 164 L 145 150"/><path d="M 60 150 Q 60 90 100 90 Q 140 90 140 150"/><path stroke-width="1.2" d="M 70 150 Q 70 100 100 100 Q 130 100 130 150"/><path stroke-width="1.2" d="M 80 150 Q 80 110 100 110 Q 120 110 120 150"/><path stroke-width="1.2" d="M 90 150 Q 90 120 100 120 Q 110 120 110 150"/><rect width="28" height="20" x="86" y="70"/><line x1="86" x2="114" y1="75" y2="75"/><line x1="86" x2="114" y1="80" y2="80"/><circle cx="94" cy="80" r="2" fill="currentColor"/><circle cx="106" cy="80" r="2" fill="currentColor"/><path stroke-width="1.2" d="M 94 76 Q 94 74 96 74 M 106 76 Q 106 74 104 74"/><path d="M 90 70 L 100 20 L 110 70"/><line x1="92" x2="108" y1="60" y2="60"/><line x1="94" x2="106" y1="50" y2="50"/><line x1="96" x2="104" y1="40" y2="40"/><line x1="98" x2="102" y1="30" y2="30"/></g><g id="accent" fill="none" stroke="currentColor" stroke-linecap="round" stroke-linejoin="round" stroke-width="2.4"><path d="M 100 45 Q 60 70 20 160"/><path d="M 100 45 Q 140 70 180 160"/><path d="M 84 65 L 75 75 L 80 82 Z"/><path d="M 68 85 L 55 95 L 62 105 Z"/><path d="M 50 110 L 35 120 L 45 132 Z"/><path d="M 116 65 L 125 75 L 120 82 Z"/><path d="M 132 85 L 145 95 L 138 105 Z"/><path d="M 150 110 L 165 120 L 155 132 Z"/></g><g id="foil" fill="none" stroke="currentColor" stroke-linecap="round" stroke-linejoin="round" stroke-width="2.4"><circle cx="100" cy="16" r="3" fill="currentColor" stroke="none"/></g></svg>