<svg xmlns="http://www.w3.org/2000/svg" viewBox="0 0 200 200">
  <g id="shadow" fill="none" stroke="currentColor" stroke-width="2.4" stroke-linecap="round" stroke-linejoin="round">
    <path d="M 14 100 Q 30 90 50 95 Q 70 85 90 95 Q 110 85 130 95" stroke-width="1.2" opacity="0.5"/>
    <!-- Rain streaks background -->
    <line x1="28" y1="14" x2="24" y2="26" stroke-width="1"/>
    <line x1="100" y1="6" x2="96" y2="18" stroke-width="1"/>
    <line x1="172" y1="14" x2="168" y2="26" stroke-width="1"/>
  </g>

  <g id="ink" fill="none" stroke="currentColor" stroke-width="2.4" stroke-linecap="round" stroke-linejoin="round">
    <line x1="14" y1="184" x2="186" y2="184"/>
    <path d="M 92 184 Q 88 160 96 132 Q 92 112 100 96"/>
    <path d="M 108 184 Q 112 160 104 132 Q 108 112 100 96"/>
    <!-- Bark hatching -->
    <path d="M 96 180 Q 94 150 100 120" stroke-width="1"/>
    <path d="M 104 180 Q 106 150 100 120" stroke-width="1"/>

    <path d="M 56 184 Q 52 160 60 142 Q 58 120 66 108"/>
    <path d="M 144 184 Q 148 160 140 142 Q 142 120 134 108"/>
    <path d="M 32 184 Q 36 162 44 146"/>
    <path d="M 168 184 Q 164 162 156 146"/>

    <!-- Canopy -->
    <path d="M 22 100 Q 18 70 36 50 Q 60 32 100 30 Q 140 32 164 50 Q 182 70 178 100"/>
    <path d="M 22 100 Q 36 116 56 110 Q 80 118 100 112 Q 120 118 144 110 Q 164 116 178 100"/>
    
    <!-- Canopy hatching -->
    <path d="M 30 90 Q 40 100 50 95" stroke-width="1.2"/>
    <path d="M 70 100 Q 85 105 100 100" stroke-width="1.2"/>
    <path d="M 130 95 Q 150 100 160 90" stroke-width="1.2"/>

    <line x1="68" y1="112" x2="68" y2="162"/>
    <line x1="82" y1="114" x2="82" y2="150"/>
    <line x1="118" y1="114" x2="118" y2="150"/>
    <line x1="132" y1="112" x2="132" y2="162"/>

    <path d="M 48 68 Q 60 60 72 68"/>
    <path d="M 88 50 Q 100 42 112 50"/>
    <path d="M 128 68 Q 140 60 152 68"/>
  </g>

  <g id="accent" fill="none" stroke="currentColor" stroke-width="2.4" stroke-linecap="round" stroke-linejoin="round">
    <line x1="8" y1="22" x2="4" y2="34"/>
    <line x1="50" y1="10" x2="46" y2="22"/>
    <line x1="150" y1="10" x2="146" y2="22"/>
    <line x1="192" y1="22" x2="188" y2="34"/>
    
    <circle cx="40" cy="116" r="1" fill="currentColor" stroke="none"/>
    <circle cx="160" cy="116" r="1" fill="currentColor" stroke="none"/>
    <circle cx="100" cy="124" r="0.8" fill="currentColor" stroke="none"/>
  </g>

  <g id="foil" fill="none" stroke="currentColor" stroke-width="2.4" stroke-linecap="round" stroke-linejoin="round">
    <circle cx="38" cy="128" r="1.5" fill="currentColor" stroke="none"/>
    <circle cx="162" cy="128" r="1.5" fill="currentColor" stroke="none"/>
  </g>
</svg>