<svg xmlns="http://www.w3.org/2000/svg" viewBox="0 0 200 200"><g id="shadow" fill="none" stroke="currentColor" stroke-linecap="round" stroke-linejoin="round" stroke-width="2.4"><path d="M 10 185 Q 25 190 40 185 T 70 185 T 100 185 T 130 185 T 160 185 T 190 185"/><path stroke-width="1.5" d="M 15 192 Q 30 196 45 192 T 75 192 T 105 192 T 135 192 T 165 192 T 185 192"/><path stroke-width="1.2" d="M 30 198 Q 50 195 70 198 T 110 198 T 150 198 T 170 198"/></g><g id="ink" fill="none" stroke="currentColor" stroke-linecap="round" stroke-linejoin="round" stroke-width="2.4"><line x1="16" x2="184" y1="178" y2="178"/><rect width="156" height="14" x="22" y="164"/><rect width="148" height="108" x="26" y="56"/><path d="M 74 164 L 74 100 A 26 26 0 0 1 126 100 L 126 164"/><path stroke-width="1.5" d="M 80 164 L 80 102 A 20 20 0 0 1 120 102 L 120 164"/><line x1="86" x2="86" y1="164" y2="108" stroke-width="1.5"/><line x1="92" x2="92" y1="164" y2="114" stroke-width="1.5"/><line x1="98" x2="98" y1="164" y2="118" stroke-width="1.5"/><line x1="102" x2="102" y1="164" y2="118" stroke-width="1.5"/><line x1="108" x2="108" y1="164" y2="114" stroke-width="1.5"/><line x1="114" x2="114" y1="164" y2="108" stroke-width="1.5"/><path d="M 36 164 L 36 130 A 12 12 0 0 1 60 130 L 60 164"/><path stroke-width="1.5" d="M 40 164 L 40 132 A 8 8 0 0 1 56 132 L 56 164"/><path d="M 140 164 L 140 130 A 12 12 0 0 1 164 130 L 164 164"/><path stroke-width="1.5" d="M 144 164 L 144 132 A 8 8 0 0 1 160 132 L 160 164"/><line x1="26" x2="174" y1="90" y2="90"/><line x1="26" x2="174" y1="76" y2="76"/><rect width="10" height="10" x="40" y="62"/><rect width="10" height="10" x="65" y="62"/><rect width="10" height="10" x="95" y="62"/><rect width="10" height="10" x="125" y="62"/><rect width="10" height="10" x="150" y="62"/><line x1="26" x2="26" y1="56" y2="30"/><line x1="40" x2="40" y1="56" y2="30"/><rect width="22" height="4" x="22" y="26"/><path d="M 24 26 Q 33 6 42 26"/><line x1="68" x2="68" y1="56" y2="36"/><line x1="78" x2="78" y1="56" y2="36"/><rect width="14" height="4" x="66" y="32"/><path d="M 68 32 Q 73 16 78 32"/><line x1="122" x2="122" y1="56" y2="36"/><line x1="132" x2="132" y1="56" y2="36"/><rect width="14" height="4" x="120" y="32"/><path d="M 122 32 Q 127 16 132 32"/><line x1="160" x2="160" y1="56" y2="30"/><line x1="174" x2="174" y1="56" y2="30"/><rect width="22" height="4" x="156" y="26"/><path d="M 158 26 Q 167 6 176 26"/></g><g id="accent" fill="none" stroke="currentColor" stroke-linecap="round" stroke-linejoin="round" stroke-width="2.4"><path stroke-width="1.2" d="M 30 110 L 34 110 M 30 120 L 34 120 M 166 110 L 170 110 M 166 120 L 170 120 M 80 82 L 86 82 M 114 82 L 120 82"/></g><g id="foil" fill="none" stroke="currentColor" stroke-linecap="round" stroke-linejoin="round" stroke-width="2.4"><circle cx="33" cy="8" r="2" fill="currentColor" stroke="none"/><line x1="33" x2="33" y1="12" y2="10"/><circle cx="73" cy="16" r="1.5" fill="currentColor" stroke="none"/><circle cx="127" cy="16" r="1.5" fill="currentColor" stroke="none"/><circle cx="167" cy="8" r="2" fill="currentColor" stroke="none"/><line x1="167" x2="167" y1="12" y2="10"/></g></svg>