<svg xmlns="http://www.w3.org/2000/svg" width="1200" height="630" viewBox="0 0 1200 630"><defs><pattern id="perfH" width="24" height="630" x="0" y="0" patternUnits="userSpaceOnUse"><circle cx="12" cy="12" r="7" fill="#f3ede2"/><circle cx="12" cy="48" r="7" fill="#f3ede2"/><circle cx="12" cy="84" r="7" fill="#f3ede2"/><circle cx="12" cy="120" r="7" fill="#f3ede2"/><circle cx="12" cy="156" r="7" fill="#f3ede2"/><circle cx="12" cy="192" r="7" fill="#f3ede2"/><circle cx="12" cy="228" r="7" fill="#f3ede2"/><circle cx="12" cy="264" r="7" fill="#f3ede2"/><circle cx="12" cy="300" r="7" fill="#f3ede2"/><circle cx="12" cy="336" r="7" fill="#f3ede2"/><circle cx="12" cy="372" r="7" fill="#f3ede2"/><circle cx="12" cy="408" r="7" fill="#f3ede2"/><circle cx="12" cy="444" r="7" fill="#f3ede2"/><circle cx="12" cy="480" r="7" fill="#f3ede2"/><circle cx="12" cy="516" r="7" fill="#f3ede2"/><circle cx="12" cy="552" r="7" fill="#f3ede2"/><circle cx="12" cy="588" r="7" fill="#f3ede2"/><circle cx="12" cy="618" r="7" fill="#f3ede2"/></pattern><pattern id="perfV" width="1200" height="24" x="0" y="0" patternUnits="userSpaceOnUse"><circle cx="36" cy="12" r="7" fill="#f3ede2"/><circle cx="72" cy="12" r="7" fill="#f3ede2"/><circle cx="108" cy="12" r="7" fill="#f3ede2"/><circle cx="144" cy="12" r="7" fill="#f3ede2"/><circle cx="180" cy="12" r="7" fill="#f3ede2"/><circle cx="216" cy="12" r="7" fill="#f3ede2"/><circle cx="252" cy="12" r="7" fill="#f3ede2"/><circle cx="288" cy="12" r="7" fill="#f3ede2"/><circle cx="324" cy="12" r="7" fill="#f3ede2"/><circle cx="360" cy="12" r="7" fill="#f3ede2"/><circle cx="396" cy="12" r="7" fill="#f3ede2"/><circle cx="432" cy="12" r="7" fill="#f3ede2"/><circle cx="468" cy="12" r="7" fill="#f3ede2"/><circle cx="504" cy="12" r="7" fill="#f3ede2"/><circle cx="540" cy="12" r="7" fill="#f3ede2"/><circle cx="576" cy="12" r="7" fill="#f3ede2"/><circle cx="612" cy="12" r="7" fill="#f3ede2"/><circle cx="648" cy="12" r="7" fill="#f3ede2"/><circle cx="684" cy="12" r="7" fill="#f3ede2"/><circle cx="720" cy="12" r="7" fill="#f3ede2"/><circle cx="756" cy="12" r="7" fill="#f3ede2"/><circle cx="792" cy="12" r="7" fill="#f3ede2"/><circle cx="828" cy="12" r="7" fill="#f3ede2"/><circle cx="864" cy="12" r="7" fill="#f3ede2"/><circle cx="900" cy="12" r="7" fill="#f3ede2"/><circle cx="936" cy="12" r="7" fill="#f3ede2"/><circle cx="972" cy="12" r="7" fill="#f3ede2"/><circle cx="1008" cy="12" r="7" fill="#f3ede2"/><circle cx="1044" cy="12" r="7" fill="#f3ede2"/><circle cx="1080" cy="12" r="7" fill="#f3ede2"/><circle cx="1116" cy="12" r="7" fill="#f3ede2"/><circle cx="1152" cy="12" r="7" fill="#f3ede2"/><circle cx="1188" cy="12" r="7" fill="#f3ede2"/></pattern></defs><rect width="1200" height="630" fill="#14110d"/><rect width="1128" height="558" x="36" y="36" fill="#f3ede2" rx="2"/><rect width="24" height="558" x="36" y="36" fill="url(#perfH)"/><rect width="24" height="558" x="1140" y="36" fill="url(#perfH)"/><rect width="1080" height="24" x="60" y="36" fill="url(#perfV)"/><rect width="1080" height="24" x="60" y="570" fill="url(#perfV)"/><rect width="1080" height="510" x="60" y="60" fill="#f3ede2"/><circle cx="980" cy="180" r="110" fill="none" stroke="#14110d" stroke-width="2.5" opacity=".18"/><circle cx="980" cy="180" r="90" fill="none" stroke="#14110d" stroke-width="1" opacity=".12"/><text x="980" y="155" fill="#14110d" font-family="monospace" font-size="11" letter-spacing="4" opacity=".35" text-anchor="middle">RUNSTAMP · 2026</text><line x1="916" x2="1044" y1="175" y2="175" stroke="#14110d" stroke-width="1.5" opacity=".2"/><line x1="916" x2="1044" y1="183" y2="183" stroke="#14110d" stroke-width="1.5" opacity=".2"/><line x1="916" x2="1044" y1="191" y2="191" stroke="#14110d" stroke-width="1.5" opacity=".2"/><text x="980" y="210" fill="#14110d" font-family="monospace" font-size="9" letter-spacing="3" opacity=".35" text-anchor="middle">IOS · ANDROID</text><text x="120" y="118" fill="#14110d" font-family="monospace" font-size="11" letter-spacing="5" opacity=".5">OPEN BETA · 2026</text><text x="120" y="230" fill="#14110d" font-family="Georgia, serif" font-size="88" font-style="italic" letter-spacing="-2">Collect a stamp</text><text x="120" y="328" fill="#14110d" font-family="Georgia, serif" font-size="88" font-style="italic" letter-spacing="-2">for every run.</text><text x="120" y="400" fill="#14110d" font-family="-apple-system, system-ui, sans-serif" font-size="22" opacity=".6">Turn your Strava runs into postcards, analytics, and a passport of cities.</text><rect width="64" height="4" x="120" y="440" fill="#e85d2f" rx="2"/><text x="120" y="490" fill="#14110d" font-family="monospace" font-size="13" letter-spacing="2" opacity=".45">SHARE CARDS · STAMP CATALOGUE · PLACES PASSPORT · FREE &amp; OPEN SOURCE</text><text x="120" y="540" fill="#e85d2f" font-family="monospace" font-size="14" letter-spacing="1">runstamp.gilla.fun</text></svg>